<mxfile host="app.diagrams.net" modified="2022-10-17T07:01:24.353Z" agent="5.0 (Windows NT 10.0; Win64; x64) AppleWebKit/537.36 (KHTML, like Gecko) Chrome/106.0.0.0 Safari/537.36 Edg/106.0.1370.42" etag="fdU6dSy8iU74qFfKkpG4" version="20.4.1" type="github">
  <diagram id="u5kzIT9bRQmSxLJKgCBW" name="第 1 页">
    <mxGraphModel dx="1555" dy="468" grid="1" gridSize="10" guides="1" tooltips="1" connect="1" arrows="1" fold="1" page="1" pageScale="1" pageWidth="827" pageHeight="1169" math="0" shadow="0">
      <root>
        <mxCell id="0" />
        <mxCell id="1" parent="0" />
        <mxCell id="TkCIoPcJHNMCIFlm0-Ud-1" value="" style="rounded=0;whiteSpace=wrap;html=1;" vertex="1" parent="1">
          <mxGeometry y="240" width="320" height="80" as="geometry" />
        </mxCell>
        <mxCell id="TkCIoPcJHNMCIFlm0-Ud-2" value="" style="rounded=0;whiteSpace=wrap;html=1;" vertex="1" parent="1">
          <mxGeometry x="520" y="240" width="200" height="80" as="geometry" />
        </mxCell>
        <mxCell id="TkCIoPcJHNMCIFlm0-Ud-3" value="" style="rounded=0;whiteSpace=wrap;html=1;" vertex="1" parent="1">
          <mxGeometry x="120" y="170" width="200" height="60" as="geometry" />
        </mxCell>
        <mxCell id="TkCIoPcJHNMCIFlm0-Ud-4" value="" style="rounded=0;whiteSpace=wrap;html=1;" vertex="1" parent="1">
          <mxGeometry x="520" y="170" width="200" height="60" as="geometry" />
        </mxCell>
        <mxCell id="TkCIoPcJHNMCIFlm0-Ud-5" value="" style="rounded=0;whiteSpace=wrap;html=1;" vertex="1" parent="1">
          <mxGeometry x="120" y="80" width="95" height="80" as="geometry" />
        </mxCell>
        <mxCell id="TkCIoPcJHNMCIFlm0-Ud-6" value="" style="rounded=0;whiteSpace=wrap;html=1;" vertex="1" parent="1">
          <mxGeometry x="225" y="80" width="95" height="80" as="geometry" />
        </mxCell>
        <mxCell id="TkCIoPcJHNMCIFlm0-Ud-7" value="&lt;font style=&quot;font-size: 18px;&quot;&gt;Text&lt;/font&gt;" style="text;html=1;strokeColor=none;fillColor=none;align=center;verticalAlign=middle;whiteSpace=wrap;rounded=0;" vertex="1" parent="1">
          <mxGeometry x="-80" y="40" width="80" height="40" as="geometry" />
        </mxCell>
        <mxCell id="TkCIoPcJHNMCIFlm0-Ud-8" value="&lt;font style=&quot;font-size: 18px;&quot;&gt;QEMU&lt;/font&gt;" style="text;html=1;strokeColor=none;fillColor=none;align=center;verticalAlign=middle;whiteSpace=wrap;rounded=0;" vertex="1" parent="1">
          <mxGeometry x="180" y="180" width="80" height="40" as="geometry" />
        </mxCell>
        <mxCell id="TkCIoPcJHNMCIFlm0-Ud-9" value="&lt;font style=&quot;font-size: 18px;&quot;&gt;QEMU&lt;/font&gt;" style="text;html=1;strokeColor=none;fillColor=none;align=center;verticalAlign=middle;whiteSpace=wrap;rounded=0;" vertex="1" parent="1">
          <mxGeometry x="580" y="180" width="80" height="40" as="geometry" />
        </mxCell>
        <mxCell id="TkCIoPcJHNMCIFlm0-Ud-10" value="" style="rounded=0;whiteSpace=wrap;html=1;" vertex="1" parent="1">
          <mxGeometry x="520" y="80" width="95" height="80" as="geometry" />
        </mxCell>
        <mxCell id="TkCIoPcJHNMCIFlm0-Ud-11" value="" style="rounded=0;whiteSpace=wrap;html=1;" vertex="1" parent="1">
          <mxGeometry x="625" y="80" width="95" height="80" as="geometry" />
        </mxCell>
      </root>
    </mxGraphModel>
  </diagram>
</mxfile>
